# xmcd
#
# Track frame offsets: 
#        150
#        3861
#        27253
#        42944
#        62417
#        73178
#        87151
#        98538
#        110735
#        133116
#        147788
#        167024
#        180490
#        193729
#        208685
#        221375
#        243522
#        259235
#        281950
#
# Disc length: 3961 seconds
#
# Revision: 2
# Processed by: cddbd v1.4PL0 Copyright (c) Steve Scherf et al.
# Submitted via: ExactAudioCopy v0.95a3
#
DISCID=140f7713
DTITLE=BLUESBERRY - Co je to blues
DYEAR=2003
DGENRE=Blues
TTITLE0=Zaciname
TTITLE1=Kazdej den
TTITLE2=Co je to blues
TTITLE3=Kalny vody blues
TTITLE4=Boogie pro Frantisku
TTITLE5=Josefina
TTITLE6=Proc te jen knajpa laka
TTITLE7=Padevet
TTITLE8=Kam dal to chces hnat
TTITLE9=Boogie je lek
TTITLE10=Po pulnoci
TTITLE11=San Francisko blues
TTITLE12=Takovou zenu hledam
TTITLE13=Tohle je my blues
TTITLE14=Prosim volejte 2245
TTITLE15=Slama
TTITLE16=Za 100 let
TTITLE17=Bluesovy kral
TTITLE18=(bonus) Co je to blues
EXTD=
EXTT0=
EXTT1=
EXTT2=
EXTT3=
EXTT4=
EXTT5=
EXTT6=
EXTT7=
EXTT8=
EXTT9=
EXTT10=
EXTT11=
EXTT12=
EXTT13=
EXTT14=
EXTT15=
EXTT16=
EXTT17=
EXTT18=
PLAYORDER=
